<?xml version="1.0" encoding="utf-8"?>
<svg width="1201" height="1470" xmlns="http://www.w3.org/2000/svg">
  <path style="fill:#cccccc; stroke:none;" d="M 652.002 574.314 C 657.329 580.781 656.836 519.323 659.039 469 C 659.9 449.346 663.155 428.582 662.502 409 C 662.259 401.723 654.319 395.808 650.658 390 C 643.288 378.306 633.687 358.915 637 345 L 638 345 C 638.924 356.706 644.369 368.343 650.953 378 C 652.526 380.307 659.166 391.149 662.397 384.678 C 664.06 381.347 663 375.633 663 372 C 663 363.279 663.999 354.696 664 346 C 664.002 316.274 665 286.705 665 257 L 667 257 C 667 271.038 670.354 284.14 670.961 298 C 672.827 340.633 672.095 383.39 673.961 426 C 674.628 441.252 675.976 456.764 676 472 C 676.016 481.974 674.6 494.857 679 504 C 695.714 499.174 707.43 482.534 717.012 469.13 C 720.899 463.694 725.54 458.642 727 452 L 728 452 L 728 460 C 724.359 460.495 723.685 465.917 721.986 469 C 717.607 476.949 712.592 484.857 706.982 491.982 C 701.297 499.2 695.219 505.679 688 511.389 C 685.006 513.757 679.204 515.537 677.63 519.153 C 673.83 527.877 678.829 543.62 678.995 553 C 679.164 562.488 677.037 571.7 677.037 581 C 677.037 600.302 677.647 582.889 682.858 575.109 C 686.338 569.913 696.471 568.241 702 565.755 C 718.073 558.529 732.798 550.672 747.424 540.711 C 786.489 514.105 809.329 475.215 822.381 431 C 831.598 399.78 828.375 368.541 825.169 337 C 816.583 252.538 776.303 169.146 731.414 97.715 C 716.416 73.85 701.29 50.323 684.039 28.004 C 680.718 23.707 672.023 7.407 666.076 8.037 C 661.869 8.482 658.617 16.05 656.232 19 C 646.641 30.864 636.417 43.136 628.255 56 C 595.817 107.121 565.611 158.374 541.525 214 C 507.368 292.887 484.05 398.568 528.914 478 C 544.179 505.028 567.635 531.59 595 546.97 C 608.89 554.777 622.861 561.622 637 568.822 C 641.183 570.952 649.081 570.769 652.002 574.314 Z"/>
  <path style="fill:#cccccc; stroke:none;" d="M991 475L992 475L992.17 449L991.682 432.21L978 423.316L957 403L961 402C963.931 409.765 976.529 416.633 984 419.61C988.266 421.309 994.037 421.117 995.566 415.945C999.898 401.299 996.639 380.331 997.015 365C997.561 342.676 999.983 320.321 1000.96 298C1001.75 280.017 999.712 260.708 1003 243L1004 243C1004.06 263.363 1006.52 283.708 1007.91 304C1008.61 314.147 1006.06 325.045 1012 334L1013 334L1028 319C1027.06 331.921 1011.41 337.377 1010.11 349C1005.53 389.949 1015 431.999 1015 473C1043.68 460.769 1070.39 453.536 1095 432.725C1103.05 425.92 1110.68 418.814 1116.59 410C1165.12 337.717 1118.07 246.743 1077.39 183C1068.38 168.871 1058.68 155.146 1048.19 142C1033.96 124.167 1017.18 107.516 1004 89C996.509 92.3387 991.524 99.0933 986.086 105C973.647 118.51 963.113 133.346 951.78 147.715C914.033 195.578 874.75 257.052 868.83 319C866.289 345.599 866.303 374.021 879.951 398C897.15 428.221 923.448 445.624 954 460.279C961.665 463.956 969.908 467.441 978 470.11C982.654 471.645 987.462 471.373 991 475z"/>
  <path style="fill:#555555; stroke:none;" d="M1003 243C999.102 259.374 1001.4 279.159 1000.99 296C1000.42 319.005 997.277 342.003 997.004 365C996.873 376.023 996.001 387.017 996 398C996 403.363 997.338 410.911 995.258 415.945C989.935 428.826 964.781 408.564 961 402L957 403C961.595 411.42 968.998 418.105 977 423.316C982.255 426.737 990.418 428.213 992.427 435.015C995.019 443.785 992 456.745 992 466C992 491.659 991.292 517.296 990.996 543C990.901 551.242 986.763 561.345 989 569L1018 566L1023 561C1028.27 583.949 996.393 582.899 984 575C979.454 579.484 973.711 581.09 968.286 584.095C954.427 591.771 940.805 599.987 926.999 607.784C872.497 638.565 816.249 662.536 758 684.611C739.199 691.736 720.012 696.981 701 703.421C695.724 705.209 684.83 710.351 681.742 702.941C680.086 698.967 681.262 693.255 681.075 689C680.504 676.021 681.303 662.987 680.985 650C680.329 623.189 679.896 595.529 678.625 569C677.93 554.499 673.342 534.092 677.434 520.044C678.909 514.981 687.063 511.95 691 508.8C699.643 501.886 706.063 493.344 712.304 484.286C714.869 480.563 721.841 472.54 717 469C712.673 483.912 692.256 498.694 679 505L675.961 473L672.996 418L670.911 335L667 284L665 284C665 306.382 664 328.663 664 351C664 360.536 666.447 374.96 662.397 383.837C660.181 388.695 655.458 384.661 653.429 382.035C648.582 375.761 643.661 368.013 643 360L640 360C640.091 371.052 645.915 383.396 652.13 392.424C655.623 397.5 662.357 402.438 662.641 409C663.285 423.878 660.379 439.121 660.015 454C658.641 510.061 655.09 566.139 655 622C654.964 644.386 654 666.648 654 689C654 696.755 656.086 708.694 649.772 714.586C638.956 724.68 614.971 724.76 601 726.104C572.833 728.813 545.581 733.788 517 735.039C472.847 736.973 429.906 731.962 386 730.039C306.935 726.577 225.622 726.751 147 735.174C121.37 737.919 95.4549 741.073 70 745.324C57.0929 747.479 44.8315 751.825 32 753.576C17.1825 755.599 -7.37864 757.656 1.6034 778.887C3.88565 784.281 12.6624 780.311 17 779.718C32.7911 777.558 48.1245 772.161 64 770.286C95.6576 766.546 127.133 760.256 159 757.17C194.502 753.732 230.378 752.599 266 751.039C386.433 745.766 506.462 771.16 626 745.741C708.84 728.125 789.923 701.15 866.83 665.407C914.865 643.082 959.117 613.402 1007.09 591.258C1046.56 573.037 1090.96 564.037 1134 561.089C1149.77 560.01 1165.29 560.994 1181 561C1185.68 561.002 1194.52 563.097 1198.68 561.218C1203.34 559.115 1201 544.363 1201 540C1159.59 539.973 1116.77 535.252 1076 545.924C1063.42 549.217 1050.32 551.345 1038 555.509C1033.34 557.086 1027.25 561.911 1022.15 558.968C1017.29 556.162 1018.11 546.787 1017.99 542C1017.59 526.968 1015.07 512.139 1015 497C1014.87 471.092 1014.99 444.926 1012.91 419C1011.1 396.525 1007.57 372.717 1010.11 350C1011.46 337.891 1027.57 332.617 1028 319L1013 334L1012 334C1006.88 323.833 1008.66 313.941 1007.91 303C1007.14 291.745 1005.14 280.267 1005 269C1004.91 260.766 1006.27 250.719 1003 243z"/>
  <path style="fill:#bbbbbb; stroke:none;" d="M 46.252 743.982 C 46.321 751.386 43.585 750.259 53 748.468 C 69.003 745.423 85.887 742.138 102 740.184 C 165.71 732.458 229.66 729.757 294 728.996 C 324.582 728.634 356.505 727.268 387 730.17 C 418.41 733.159 467.866 735.599 464.433 732.436 C 459.048 727.476 457.178 716.213 452.405 710 C 448.853 705.376 437.124 699.246 437.002 693 C 436.89 687.301 447.362 680.225 450.961 676.389 C 458.8 668.031 463.586 657.531 463.871 646 C 464.429 623.481 448.852 613.134 439.959 594.911 C 436.158 587.121 438.535 575.43 437.946 567 C 437.422 559.51 433.392 550.147 429.046 544.089 C 418.888 529.933 400.101 526.993 384 527 C 379.454 527.002 373.17 529.54 369 528.244 C 349.778 522.27 333.891 506.698 312 508.09 C 284.278 509.853 260.186 520.345 238.428 537.366 C 229.44 544.397 219.451 561.735 208.957 565.434 C 204.649 566.953 199.678 563.069 196 561.289 C 187.531 557.193 177.914 554.02 169 550.965 C 142.159 541.768 112.702 553.509 95.555 574.272 C 86.045 585.787 81.767 599.288 76.598 613 C 74.481 618.615 74.391 624.763 70.95 629.907 C 67.462 635.121 60.301 637.967 55.59 642.089 C 42.749 653.323 30.029 670.295 29.043 688 C 28.494 697.864 30.886 713.115 35.12 722 C 37.933 727.903 46.192 737.528 46.252 743.982 Z"/>
  <path style="fill:#dddddd; stroke:none;" d="M0 786L0 788L6 788L6 789C-1.52074 793.134 0 815.836 0 824L0 893C0 906.625 -1.04966 921.736 2 935L6 935L6 936L1 937L0 942C89.0497 911.688 177.762 881.935 268 855.367C311.981 842.417 357.272 829.923 403 824.286C469.255 816.12 536.721 816.036 603 824.286C661.983 831.628 722.295 848.403 777 871.528C813.53 886.969 848.026 908.354 887 917.471C963.579 935.385 1041.37 926.916 1113 894.767C1135.47 884.68 1156.8 872.367 1177 858.246C1184.21 853.208 1193.71 848.075 1199.39 841.289C1202.78 837.243 1201 827.035 1201 822L1201 769L1201 565C1135.92 559.863 1070.49 566.91 1010 592.873C967.597 611.072 929.573 638.146 888 658.114C824.335 688.693 758.714 713.224 691 733.087C621.976 753.334 546.028 763.75 474 761.985C403.951 760.269 334.395 750.957 264 754.039C206.514 756.557 147.842 758.856 91 768.326C72.8856 771.344 53.8943 774.029 36 778.236C24.5546 780.927 11.719 785.75 0 786z"/>
  <path style="fill:#999999; stroke:none;" d="M1201 844C1191.09 847.34 1181.41 857.099 1173 863.335C1161.87 871.589 1149.19 878.553 1137 885.115C1087.14 911.954 1027.15 931.364 970 929.985C935.431 929.152 901.034 924.46 868 913.95C835.976 903.761 806.974 886.174 776 873.348C741.198 858.937 704.679 847.38 668 838.887C585.69 819.829 497.897 814.392 414 825.289C327.824 836.483 244.498 863.232 162 889.406C123.861 901.506 85.4171 913.171 48 927.409C34.344 932.605 14.908 934.814 3.22839 943.839C-2.55631 948.31 0 961.502 0 968L0 1036C0 1119.77 1 1203.24 1 1287C1 1307.02 0 1326.94 0 1347C0 1354.73 -1.91515 1364.78 5.10494 1370.05C25.2931 1385.2 50.7665 1395.26 74 1404.6C121.389 1423.66 170.169 1436.21 220 1447.01C269.429 1457.73 320.509 1466.45 371 1469.91C402.683 1472.08 435.236 1470 467 1470C511.268 1470 555.144 1471.17 599 1464.83C651.927 1457.18 703.056 1441.53 755 1429.24C813.075 1415.49 871.887 1403.9 931 1395.43C958.913 1391.43 986.944 1389.97 1015 1387.91C1052.08 1385.19 1092.22 1383.48 1129 1391.12C1146.25 1394.7 1163.82 1397.17 1181 1400.88C1185.03 1401.76 1196.86 1406.02 1199.97 1402.25C1201.92 1399.89 1201 1394.84 1201 1392L1201 1365L1201 1258L1201 844z"/>
  <path style="fill:#aaaaaa; stroke:none;" d="M 1201.167 842.409 C 1191.257 845.749 1181.577 855.508 1173.167 861.744 C 1162.037 869.998 1149.357 876.962 1137.167 883.524 C 1087.307 910.363 1027.317 929.773 970.167 928.394 C 935.598 927.561 901.201 922.869 868.167 912.359 C 836.143 902.17 807.141 884.583 776.167 871.757 C 741.365 857.346 704.846 845.789 668.167 837.296 C 585.857 818.238 498.064 812.801 414.167 823.698 C 327.991 834.892 244.665 861.641 162.167 887.815 C 124.028 899.915 85.584 911.58 48.167 925.818 C 34.511 931.014 15.075 933.223 3.395 942.248 C -2.389 946.719 0.167 959.911 0.167 966.409 L 0.167 1034.409 C 0.167 1118.179 1.698 1056.804 1.698 1140.564 C 1.698 1145.685 21.342 1164.942 49.218 1169.735 C 80.519 1175.116 123.947 1180.816 167.274 1188.017 C 235.582 1199.37 306.887 1198.992 329.656 1203.927 C 343.952 1207.027 450.14 1197.857 527.845 1187.808 C 590.648 1179.686 607.714 1176.524 668.713 1162.597 C 694.607 1156.685 736.894 1144.717 763.433 1133.056 C 792.379 1120.337 819.367 1117.878 844.473 1119.101 C 911.289 1122.356 958.194 1131.575 965.911 1131.598 C 980.981 1131.643 1032.434 1151.229 1080.561 1155.941 C 1148.377 1162.58 1201.167 1167.403 1201.167 1167.403 L 1201.167 842.409 Z"/>
</svg>